<svg version="1.2" xmlns="http://www.w3.org/2000/svg" viewBox="0 0 200 200" width="200" height="200">
	<title>logo</title>
	<style>
		.s0 { fill: none;stroke: #ffffff;stroke-miterlimit:100;stroke-width: 5 } 
		.s1 { fill: #3499cd } 
		.s2 { fill: #f89939 } 
		.s3 { fill: #000000 } 
	</style>
	<path id="Layer 1" class="s0" d="m100 8c50.8 0 92 41.2 92 92v2c0 50.8-41.2 92-92 92-50.8 0-92-41.2-92-92v-2c0-50.8 41.2-92 92-92z"/>
	<path id="D" class="s1" aria-label="D"  d="m119.9 39.2h-14.3v68.1h14.3q18.1 0 26.5-8.2 8.4-8.2 8.4-25.9 0-17.6-8.4-25.8-8.4-8.2-26.5-8.2zm-26.1 77.8v-87.5h24.3q25.4 0 37.3 10.6 11.9 10.6 11.9 33.1 0 22.6-11.9 33.2-12 10.6-37.3 10.6z"/>
	<path id="B" class="s2" aria-label="B"  d="m63.4 74.2h19v32.1h-19q-9.5 0-14.1-4-4.6-3.9-4.6-12.1 0-8.2 4.6-12.1 4.6-3.9 14.1-3.9zm1.5-36h17.5v26.4h-17.5q-8.7 0-12.9-3.2-4.3-3.3-4.3-10 0-6.6 4.3-9.9 4.2-3.3 12.9-3.3zm29.3 77.8v-87.5h-30.2q-13.5 0-20.9 5.6-7.3 5.7-7.3 16 0 8.1 3.8 12.8 3.7 4.8 11 5.9-8.8 1.9-13.6 7.9-4.8 5.9-4.8 14.8 0 11.7 7.9 18.1 8 6.4 22.7 6.4z"/>
	<path id="E" class="s3" aria-label="E"  d="m48 114.8h87.5v55.3h-10v-43.5h-25.9v41.7h-9.9v-41.7h-31.7v44.5h-10z"/>
	<path id="Bayesian Deep Ensambles" class="s3" aria-label="Bayesian Deep
Ensambles"  d="m60 93.5h-1.6v2.7h1.6q0.8 0 1.2-0.3 0.4-0.4 0.4-1 0-0.7-0.4-1.1-0.4-0.3-1.2-0.3zm-0.1-3h-1.5v2.2h1.5q0.7 0 1.1-0.3 0.3-0.2 0.3-0.8 0-0.5-0.3-0.8-0.4-0.3-1.1-0.3zm-2.4 6.5v-7.3h2.5q1.1 0 1.7 0.5 0.6 0.4 0.6 1.3 0 0.7-0.3 1.1-0.3 0.4-0.9 0.5 0.7 0.1 1.1 0.6 0.4 0.5 0.4 1.3 0 0.9-0.6 1.5-0.7 0.5-1.9 0.5zm10.2-2.7h-0.9q-1.1 0-1.5 0.2-0.4 0.2-0.4 0.8 0 0.5 0.3 0.8 0.3 0.3 0.8 0.3 0.8 0 1.2-0.5 0.5-0.6 0.5-1.4zm0.9-0.4v3.1h-0.9v-0.8q-0.3 0.5-0.8 0.7-0.4 0.2-1.1 0.2-0.9 0-1.4-0.4-0.4-0.5-0.4-1.3 0-0.9 0.6-1.4 0.6-0.5 1.8-0.5h1.3q0-0.7-0.4-1-0.4-0.3-1.2-0.3-0.4 0-0.9 0.1-0.4 0.1-0.8 0.3v-0.8q0.4-0.2 0.9-0.3 0.5-0.1 0.9-0.1 1.2 0 1.8 0.6 0.6 0.6 0.6 1.9zm6.5-2.4l-2.4 6q-0.4 1-0.7 1.3-0.4 0.3-1 0.3h-0.7v-0.8h0.5q0.4 0 0.6-0.1 0.2-0.2 0.4-0.9l0.2-0.4-2.2-5.4h0.9l1.7 4.3 1.8-4.3zm5.9 2.5v0.5h-4.2q0.1 0.9 0.6 1.4 0.5 0.5 1.4 0.5 0.5 0 1-0.1 0.5-0.2 1-0.4v0.8q-0.5 0.2-1 0.3-0.5 0.1-1.1 0.1-1.3 0-2-0.7-0.8-0.8-0.8-2.1 0-1.3 0.7-2.1 0.8-0.8 2-0.8 1.1 0 1.7 0.7 0.7 0.7 0.7 1.9zm-4.1-0.2h3.2q0-0.8-0.4-1.2-0.4-0.4-1.1-0.4-0.8 0-1.2 0.4-0.5 0.4-0.5 1.2zm9-2.1v0.8q-0.4-0.2-0.8-0.3-0.4 0-0.8 0-0.7 0-1 0.2-0.3 0.2-0.3 0.6 0 0.3 0.2 0.5 0.2 0.1 1 0.3l0.3 0.1q0.9 0.2 1.3 0.6 0.4 0.3 0.4 1 0 0.8-0.6 1.2-0.6 0.4-1.6 0.4-0.5 0-1 0-0.4-0.1-1-0.3v-0.9q0.5 0.2 1 0.4 0.5 0.1 1 0.1 0.6 0 1-0.2 0.3-0.2 0.3-0.6 0-0.4-0.2-0.6-0.3-0.2-1.1-0.4l-0.3-0.1q-0.9-0.1-1.2-0.5-0.4-0.4-0.4-1 0-0.8 0.5-1.2 0.6-0.4 1.6-0.4 0.5 0 0.9 0.1 0.5 0 0.8 0.2zm1.8 5.3v-5.5h0.9v5.5zm0-6.5v-1.1h0.9v1.1zm6.1 3.8h-0.9q-1.1 0-1.5 0.2-0.4 0.2-0.4 0.8 0 0.5 0.3 0.8 0.3 0.3 0.9 0.3 0.7 0 1.2-0.5 0.4-0.6 0.4-1.4zm0.9-0.4v3.1h-0.9v-0.8q-0.3 0.5-0.8 0.7-0.4 0.2-1.1 0.2-0.8 0-1.3-0.4-0.5-0.5-0.5-1.3 0-0.9 0.6-1.4 0.6-0.5 1.8-0.5h1.3q0-0.7-0.4-1-0.4-0.3-1.1-0.3-0.5 0-1 0.1-0.4 0.1-0.8 0.3v-0.8q0.5-0.2 0.9-0.3 0.5-0.1 0.9-0.1 1.2 0 1.8 0.6 0.6 0.6 0.6 1.9zm6.4-0.2v3.3h-0.9v-3.3q0-0.7-0.3-1.1-0.3-0.4-0.9-0.4-0.7 0-1.2 0.4-0.4 0.5-0.4 1.3v3.1h-0.9v-5.5h0.9v0.9q0.3-0.5 0.8-0.8 0.4-0.2 1-0.2 0.9 0 1.4 0.6 0.5 0.6 0.5 1.7zm7.2-3.2h-1.2v5.7h1.2q1.5 0 2.2-0.7 0.7-0.7 0.7-2.2 0-1.4-0.7-2.1-0.7-0.7-2.2-0.7zm-2.2 6.5v-7.3h2q2.2 0 3.1 0.9 1 0.9 1 2.7 0 1.9-1 2.8-1 0.9-3.1 0.9zm12.4-3v0.5h-4.2q0.1 0.9 0.6 1.4 0.5 0.5 1.4 0.5 0.5 0 1-0.1 0.5-0.2 1-0.4v0.8q-0.5 0.2-1 0.3-0.5 0.1-1.1 0.1-1.3 0-2-0.7-0.8-0.8-0.8-2.1 0-1.3 0.7-2.1 0.8-0.8 2-0.8 1.1 0 1.7 0.7 0.7 0.7 0.7 1.9zm-4.1-0.2h3.2q0-0.8-0.4-1.2-0.4-0.4-1.1-0.4-0.8 0-1.2 0.4-0.5 0.4-0.5 1.2zm10.2 0.2v0.5h-4.1q0.1 0.9 0.6 1.4 0.5 0.5 1.4 0.5 0.5 0 1-0.1 0.4-0.2 0.9-0.4v0.8q-0.5 0.2-1 0.3-0.5 0.1-1 0.1-1.3 0-2.1-0.7-0.7-0.8-0.7-2.1 0-1.3 0.7-2.1 0.7-0.8 1.9-0.8 1.1 0 1.8 0.7 0.6 0.7 0.6 1.9zm-4.1-0.2h3.2q0-0.8-0.4-1.2-0.4-0.4-1-0.4-0.8 0-1.3 0.4-0.4 0.4-0.5 1.2zm6.5 2.4v2.9h-0.9v-7.6h0.9v0.9q0.3-0.5 0.7-0.8 0.4-0.2 1-0.2 1 0 1.6 0.8 0.7 0.8 0.7 2.1 0 1.3-0.7 2.1-0.6 0.7-1.6 0.7-0.6 0-1-0.2-0.4-0.2-0.7-0.7zm3-1.9q0-1-0.4-1.6-0.4-0.5-1.1-0.5-0.7 0-1.1 0.5-0.4 0.6-0.4 1.6 0 1 0.4 1.5 0.4 0.6 1.1 0.6 0.7 0 1.1-0.6 0.4-0.5 0.4-1.5zm-62.1 14.7v-7.3h4.6v0.8h-3.7v2.2h3.5v0.8h-3.5v2.7h3.8v0.8zm10.8-3.3v3.3h-0.9v-3.3q0-0.7-0.3-1.1-0.3-0.4-0.9-0.4-0.8 0-1.2 0.4-0.4 0.5-0.4 1.3v3.1h-0.9v-5.5h0.9v0.9q0.3-0.5 0.8-0.8 0.4-0.2 1-0.2 0.9 0 1.4 0.6 0.5 0.6 0.5 1.7zm5.3-2v0.8q-0.4-0.2-0.8-0.3-0.4 0-0.9 0-0.7 0-1 0.2-0.3 0.2-0.3 0.6 0 0.3 0.2 0.5 0.3 0.1 1 0.3l0.3 0.1q0.9 0.2 1.3 0.6 0.5 0.3 0.5 1 0 0.8-0.7 1.2-0.6 0.4-1.6 0.4-0.4 0-0.9 0-0.5-0.1-1-0.3v-0.9q0.5 0.2 1 0.4 0.4 0.1 0.9 0.1 0.6 0 1-0.2 0.3-0.2 0.3-0.6 0-0.4-0.2-0.6-0.3-0.2-1.1-0.4l-0.3-0.1q-0.8-0.1-1.2-0.5-0.4-0.4-0.4-1 0-0.8 0.6-1.2 0.5-0.4 1.5-0.4 0.5 0 0.9 0.1 0.5 0 0.9 0.2zm5.1 2.6h-0.9q-1.1 0-1.5 0.2-0.5 0.2-0.5 0.9 0 0.4 0.4 0.7 0.3 0.3 0.8 0.3 0.8 0 1.2-0.5 0.5-0.6 0.5-1.4zm0.9-0.4v3.1h-0.9v-0.8q-0.3 0.5-0.8 0.7-0.5 0.2-1.1 0.2-0.9 0-1.4-0.4-0.5-0.5-0.5-1.3 0-0.9 0.7-1.4 0.6-0.5 1.8-0.5h1.3q0-0.7-0.4-1-0.5-0.3-1.2-0.3-0.5 0-0.9 0.1-0.4 0.1-0.9 0.3v-0.8q0.5-0.2 1-0.3 0.5-0.1 0.9-0.1 1.2 0 1.8 0.6 0.6 0.6 0.6 1.9zm6.1-1.3q0.3-0.6 0.8-0.9 0.4-0.3 1.1-0.3 0.8 0 1.3 0.6 0.5 0.6 0.5 1.7v3.3h-0.9v-3.3q0-0.8-0.3-1.1-0.3-0.4-0.9-0.4-0.7 0-1.1 0.4-0.4 0.5-0.4 1.3v3.1h-0.9v-3.3q0-0.8-0.3-1.1-0.2-0.4-0.8-0.4-0.7 0-1.1 0.5-0.4 0.4-0.4 1.2v3.1h-0.9v-5.5h0.9v0.9q0.3-0.5 0.7-0.8 0.4-0.2 1-0.2 0.6 0 1 0.3 0.5 0.3 0.7 0.9zm9.4 1.7q0-1-0.4-1.6-0.4-0.5-1.2-0.5-0.7 0-1.1 0.5-0.4 0.6-0.4 1.6 0 1 0.4 1.5 0.4 0.6 1.1 0.6 0.8 0 1.2-0.6 0.4-0.5 0.4-1.5zm-3.1-4.9v3q0.3-0.5 0.7-0.8 0.5-0.2 1.1-0.2 1 0 1.6 0.8 0.6 0.8 0.6 2.1 0 1.3-0.6 2.1-0.6 0.7-1.6 0.7-0.6 0-1.1-0.2-0.4-0.2-0.7-0.7v0.8h-0.9v-7.6zm5.5 7.6v-7.6h0.9v7.6zm7.5-3v0.5h-4.2q0.1 0.9 0.6 1.4 0.5 0.5 1.4 0.5 0.5 0 1-0.1 0.5-0.2 0.9-0.4v0.8q-0.4 0.2-1 0.3-0.5 0.1-1 0.1-1.3 0-2.1-0.7-0.7-0.8-0.7-2.1 0-1.3 0.7-2.1 0.7-0.8 2-0.8 1.1 0 1.7 0.7 0.7 0.7 0.7 1.9zm-4.2-0.2h3.3q-0.1-0.8-0.5-1.2-0.4-0.4-1-0.4-0.8 0-1.2 0.4-0.5 0.4-0.6 1.2zm9.1-2.1v0.8q-0.4-0.2-0.8-0.3-0.4 0-0.8 0-0.7 0-1 0.2-0.4 0.2-0.4 0.6 0 0.3 0.3 0.5 0.2 0.1 0.9 0.3l0.3 0.1q1 0.2 1.4 0.6 0.4 0.3 0.4 1 0 0.8-0.6 1.2-0.6 0.4-1.7 0.4-0.4 0-0.9 0-0.4-0.1-1-0.3v-0.9q0.5 0.2 1 0.4 0.5 0.1 1 0.1 0.6 0 0.9-0.2 0.4-0.2 0.4-0.6 0-0.4-0.3-0.6-0.2-0.2-1-0.4l-0.4-0.1q-0.8-0.1-1.2-0.5-0.3-0.4-0.3-1 0-0.8 0.5-1.2 0.6-0.4 1.6-0.4 0.5 0 0.9 0.1 0.4 0 0.8 0.2z"/>
</svg>